{
  "asset": {
    "version": "2.0",
    "generator": "Sketchup glTF Exporter v1.2.6 by Centaur"
  },
  "scene": 0,
  "scenes": [
    {
      "nodes": [
        0
      ]
    }
  ],
  "samplers": [
    {
    }
  ],
  "nodes": [
    {
      "name": "root",
      "children": [
        1,
        2,
        3,
        4,
        5,
        6,
        7,
        8,
        9,
        10,
        11,
        12,
        13,
        14,
        15,
        16,
        17,
        18,
        19,
        20,
        21,
        22,
        23,
        24,
        25,
        26,
        27,
        28
      ],
      "mesh": 28
    },
    {
      "name": "Cabinet+Drawer+Handle",
      "mesh": 0
    },
    {
      "name": "Cabinet+Drawer+Handle",
      "mesh": 1
    },
    {
      "name": "Cabinet+Drawer+Handle",
      "mesh": 2
    },
    {
      "name": "Cabinet+Drawer+Handle",
      "mesh": 3
    },
    {
      "name": "Cabinet+Drawer+Handle",
      "mesh": 4
    },
    {
      "name": "Cabinet+Drawer+Handle",
      "mesh": 5
    },
    {
      "name": "Cabinet+Drawer+Handle",
      "mesh": 6
    },
    {
      "name": "Cabinet+Drawer+Handle",
      "mesh": 7
    },
    {
      "name": "Cabinet+Drawer+Handle",
      "mesh": 8
    },
    {
      "name": "Cabinet+Drawer+Handle",
      "mesh": 9
    },
    {
      "name": "Cabinet+Drawer+Handle",
      "mesh": 10
    },
    {
      "name": "Cabinet+Drawer+Handle",
      "mesh": 11
    },
    {
      "name": "Cabinet+Drawer+Handle",
      "mesh": 12
    },
    {
      "name": "Cabinet+Drawer+Handle",
      "mesh": 13
    },
    {
      "name": "Cabinet+Drawer+Handle",
      "mesh": 14
    },
    {
      "name": "Cabinet+Drawer+Handle",
      "mesh": 15
    },
    {
      "name": "Cabinet+Drawer+Handle",
      "mesh": 16
    },
    {
      "name": "Cabinet+Drawer+Handle",
      "mesh": 17
    },
    {
      "name": "Cabinet+Drawer+Handle",
      "mesh": 18
    },
    {
      "name": "Cabinet+Drawer+Handle",
      "mesh": 19
    },
    {
      "name": "Cabinet+Drawer+Handle",
      "mesh": 20
    },
    {
      "name": "Cabinet+Drawer+Handle",
      "mesh": 21
    },
    {
      "name": "Cabinet+Drawer+Handle",
      "mesh": 22
    },
    {
      "name": "Cabinet+Drawer+Handle",
      "mesh": 23
    },
    {
      "name": "Cabinet+Drawer+Handle",
      "mesh": 24
    },
    {
      "name": "Cabinet+Drawer+Handle",
      "mesh": 25
    },
    {
      "name": "Cabinet+Drawer+Handle",
      "mesh": 26
    },
    {
      "name": "Cabinet+Drawer+Handle",
      "mesh": 27
    }
  ],
  "materials": [
    {
      "pbrMetallicRoughness": {
        "baseColorTexture": {
          "index": 0
        },
        "metallicFactor": 0.1,
        "roughnessFactor": 0.9
      },
      "name": "Wood Floor Dark"
    },
    {
      "pbrMetallicRoughness": {
        "baseColorFactor": [
          0.2176,
          0.2176,
          0.2176,
          1.0
        ],
        "metallicFactor": 0.1,
        "roughnessFactor": 0.9
      },
      "name": "default material",
      "doubleSided": true
    },
    {
      "pbrMetallicRoughness": {
        "baseColorFactor": [
          1.0,
          1.0,
          1.0,
          1.0
        ],
        "metallicFactor": 0.1,
        "roughnessFactor": 0.9
      },
      "name": "Color M00"
    },
    {
      "pbrMetallicRoughness": {
        "baseColorFactor": [
          0.325,
          0.325,
          0.325,
          1.0
        ],
        "metallicFactor": 0.1,
        "roughnessFactor": 0.9
      },
      "name": "Material2",
      "doubleSided": true
    }
  ],
  "images": [
    {
      "bufferView": 0,
      "mimeType": "image/jpeg"
    }
  ],
  "textures": [
    {
      "source": 0,
      "sampler": 0
    }
  ],
  "meshes": [
    {
      "primitives": [
        {
          "attributes": {
            "POSITION": 0,
            "NORMAL": 1
          },
          "indices": 5,
          "mode": 4,
          "material": 3
        }
      ]
    },
    {
      "primitives": [
        {
          "attributes": {
            "POSITION": 0,
            "NORMAL": 1
          },
          "indices": 6,
          "mode": 4,
          "material": 3
        }
      ]
    },
    {
      "primitives": [
        {
          "attributes": {
            "POSITION": 0,
            "NORMAL": 1
          },
          "indices": 7,
          "mode": 4,
          "material": 3
        }
      ]
    },
    {
      "primitives": [
        {
          "attributes": {
            "POSITION": 0,
            "NORMAL": 1
          },
          "indices": 8,
          "mode": 4,
          "material": 3
        }
      ]
    },
    {
      "primitives": [
        {
          "attributes": {
            "POSITION": 0,
            "NORMAL": 1
          },
          "indices": 9,
          "mode": 4,
          "material": 3
        }
      ]
    },
    {
      "primitives": [
        {
          "attributes": {
            "POSITION": 0,
            "NORMAL": 1
          },
          "indices": 10,
          "mode": 4,
          "material": 3
        }
      ]
    },
    {
      "primitives": [
        {
          "attributes": {
            "POSITION": 0,
            "NORMAL": 1
          },
          "indices": 11,
          "mode": 4,
          "material": 3
        }
      ]
    },
    {
      "primitives": [
        {
          "attributes": {
            "POSITION": 0,
            "NORMAL": 1
          },
          "indices": 12,
          "mode": 4,
          "material": 3
        }
      ]
    },
    {
      "primitives": [
        {
          "attributes": {
            "POSITION": 0,
            "NORMAL": 1
          },
          "indices": 13,
          "mode": 4,
          "material": 3
        }
      ]
    },
    {
      "primitives": [
        {
          "attributes": {
            "POSITION": 0,
            "NORMAL": 1
          },
          "indices": 14,
          "mode": 4,
          "material": 3
        }
      ]
    },
    {
      "primitives": [
        {
          "attributes": {
            "POSITION": 0,
            "NORMAL": 1
          },
          "indices": 15,
          "mode": 4,
          "material": 3
        }
      ]
    },
    {
      "primitives": [
        {
          "attributes": {
            "POSITION": 0,
            "NORMAL": 1
          },
          "indices": 16,
          "mode": 4,
          "material": 3
        }
      ]
    },
    {
      "primitives": [
        {
          "attributes": {
            "POSITION": 0,
            "NORMAL": 1
          },
          "indices": 17,
          "mode": 4,
          "material": 3
        }
      ]
    },
    {
      "primitives": [
        {
          "attributes": {
            "POSITION": 0,
            "NORMAL": 1
          },
          "indices": 18,
          "mode": 4,
          "material": 3
        }
      ]
    },
    {
      "primitives": [
        {
          "attributes": {
            "POSITION": 0,
            "NORMAL": 1
          },
          "indices": 19,
          "mode": 4,
          "material": 3
        }
      ]
    },
    {
      "primitives": [
        {
          "attributes": {
            "POSITION": 0,
            "NORMAL": 1
          },
          "indices": 20,
          "mode": 4,
          "material": 3
        }
      ]
    },
    {
      "primitives": [
        {
          "attributes": {
            "POSITION": 0,
            "NORMAL": 1
          },
          "indices": 21,
          "mode": 4,
          "material": 3
        }
      ]
    },
    {
      "primitives": [
        {
          "attributes": {
            "POSITION": 0,
            "NORMAL": 1
          },
          "indices": 22,
          "mode": 4,
          "material": 3
        }
      ]
    },
    {
      "primitives": [
        {
          "attributes": {
            "POSITION": 0,
            "NORMAL": 1
          },
          "indices": 23,
          "mode": 4,
          "material": 3
        }
      ]
    },
    {
      "primitives": [
        {
          "attributes": {
            "POSITION": 0,
            "NORMAL": 1
          },
          "indices": 24,
          "mode": 4,
          "material": 3
        }
      ]
    },
    {
      "primitives": [
        {
          "attributes": {
            "POSITION": 0,
            "NORMAL": 1
          },
          "indices": 25,
          "mode": 4,
          "material": 3
        }
      ]
    },
    {
      "primitives": [
        {
          "attributes": {
            "POSITION": 0,
            "NORMAL": 1
          },
          "indices": 26,
          "mode": 4,
          "material": 3
        }
      ]
    },
    {
      "primitives": [
        {
          "attributes": {
            "POSITION": 0,
            "NORMAL": 1
          },
          "indices": 27,
          "mode": 4,
          "material": 3
        }
      ]
    },
    {
      "primitives": [
        {
          "attributes": {
            "POSITION": 0,
            "NORMAL": 1
          },
          "indices": 28,
          "mode": 4,
          "material": 3
        }
      ]
    },
    {
      "primitives": [
        {
          "attributes": {
            "POSITION": 0,
            "NORMAL": 1
          },
          "indices": 29,
          "mode": 4,
          "material": 3
        }
      ]
    },
    {
      "primitives": [
        {
          "attributes": {
            "POSITION": 0,
            "NORMAL": 1
          },
          "indices": 30,
          "mode": 4,
          "material": 3
        }
      ]
    },
    {
      "primitives": [
        {
          "attributes": {
            "POSITION": 0,
            "NORMAL": 1
          },
          "indices": 31,
          "mode": 4,
          "material": 3
        }
      ]
    },
    {
      "primitives": [
        {
          "attributes": {
            "POSITION": 0,
            "NORMAL": 1
          },
          "indices": 32,
          "mode": 4,
          "material": 3
        }
      ]
    },
    {
      "primitives": [
        {
          "attributes": {
            "POSITION": 2,
            "NORMAL": 3,
            "TEXCOORD_0": 4
          },
          "indices": 33,
          "mode": 4,
          "material": 0
        },
        {
          "attributes": {
            "POSITION": 0,
            "NORMAL": 1
          },
          "indices": 34,
          "mode": 4,
          "material": 1
        },
        {
          "attributes": {
            "POSITION": 0,
            "NORMAL": 1
          },
          "indices": 35,
          "mode": 4,
          "material": 2
        }
      ]
    }
  ],
  "accessors": [
    {
      "bufferView": 1,
      "componentType": 5126,
      "count": 7933,
      "type": "VEC3",
      "min": [
        1.1419047628097614e-14,
        -2.7994173976983366e-14,
        -457.17955571310847
      ],
      "max": [
        199.60557796339518,
        250.00000000000003,
        -46.62179999999998
      ]
    },
    {
      "bufferView": 2,
      "componentType": 5126,
      "count": 7933,
      "type": "VEC3",
      "min": [
        -1.0,
        -1.0,
        -1.0
      ],
      "max": [
        1.0,
        1.0,
        1.0
      ]
    },
    {
      "bufferView": 3,
      "componentType": 5126,
      "count": 349,
      "type": "VEC3",
      "min": [
        1.1419047628097614e-14,
        -2.7994173976983366e-14,
        -457.17955571310847
      ],
      "max": [
        177.8367292063491,
        250.00000000000003,
        -46.62179999999998
      ]
    },
    {
      "bufferView": 4,
      "componentType": 5126,
      "count": 349,
      "type": "VEC3",
      "min": [
        -3.7052339370909967e-16,
        -1.0,
        -1.0
      ],
      "max": [
        1.0,
        1.0,
        1.0
      ]
    },
    {
      "bufferView": 5,
      "componentType": 5126,
      "count": 349,
      "type": "VEC2",
      "min": [
        -58.345383597883526,
        -373.9832313919853
      ],
      "max": [
        149.68325318671538,
        12.641889240497465
      ]
    },
    {
      "bufferView": 6,
      "componentType": 5123,
      "count": 708,
      "type": "SCALAR"
    },
    {
      "bufferView": 6,
      "componentType": 5123,
      "count": 708,
      "type": "SCALAR",
      "byteOffset": 1416
    },
    {
      "bufferView": 6,
      "componentType": 5123,
      "count": 708,
      "type": "SCALAR",
      "byteOffset": 2832
    },
    {
      "bufferView": 6,
      "componentType": 5123,
      "count": 708,
      "type": "SCALAR",
      "byteOffset": 4248
    },
    {
      "bufferView": 6,
      "componentType": 5123,
      "count": 708,
      "type": "SCALAR",
      "byteOffset": 5664
    },
    {
      "bufferView": 6,
      "componentType": 5123,
      "count": 708,
      "type": "SCALAR",
      "byteOffset": 7080
    },
    {
      "bufferView": 6,
      "componentType": 5123,
      "count": 708,
      "type": "SCALAR",
      "byteOffset": 8496
    },
    {
      "bufferView": 6,
      "componentType": 5123,
      "count": 708,
      "type": "SCALAR",
      "byteOffset": 9912
    },
    {
      "bufferView": 6,
      "componentType": 5123,
      "count": 708,
      "type": "SCALAR",
      "byteOffset": 11328
    },
    {
      "bufferView": 6,
      "componentType": 5123,
      "count": 708,
      "type": "SCALAR",
      "byteOffset": 12744
    },
    {
      "bufferView": 6,
      "componentType": 5123,
      "count": 708,
      "type": "SCALAR",
      "byteOffset": 14160
    },
    {
      "bufferView": 6,
      "componentType": 5123,
      "count": 708,
      "type": "SCALAR",
      "byteOffset": 15576
    },
    {
      "bufferView": 6,
      "componentType": 5123,
      "count": 708,
      "type": "SCALAR",
      "byteOffset": 16992
    },
    {
      "bufferView": 6,
      "componentType": 5123,
      "count": 708,
      "type": "SCALAR",
      "byteOffset": 18408
    },
    {
      "bufferView": 6,
      "componentType": 5123,
      "count": 708,
      "type": "SCALAR",
      "byteOffset": 19824
    },
    {
      "bufferView": 6,
      "componentType": 5123,
      "count": 708,
      "type": "SCALAR",
      "byteOffset": 21240
    },
    {
      "bufferView": 6,
      "componentType": 5123,
      "count": 708,
      "type": "SCALAR",
      "byteOffset": 22656
    },
    {
      "bufferView": 6,
      "componentType": 5123,
      "count": 708,
      "type": "SCALAR",
      "byteOffset": 24072
    },
    {
      "bufferView": 6,
      "componentType": 5123,
      "count": 708,
      "type": "SCALAR",
      "byteOffset": 25488
    },
    {
      "bufferView": 6,
      "componentType": 5123,
      "count": 708,
      "type": "SCALAR",
      "byteOffset": 26904
    },
    {
      "bufferView": 6,
      "componentType": 5123,
      "count": 708,
      "type": "SCALAR",
      "byteOffset": 28320
    },
    {
      "bufferView": 6,
      "componentType": 5123,
      "count": 708,
      "type": "SCALAR",
      "byteOffset": 29736
    },
    {
      "bufferView": 6,
      "componentType": 5123,
      "count": 708,
      "type": "SCALAR",
      "byteOffset": 31152
    },
    {
      "bufferView": 6,
      "componentType": 5123,
      "count": 708,
      "type": "SCALAR",
      "byteOffset": 32568
    },
    {
      "bufferView": 6,
      "componentType": 5123,
      "count": 708,
      "type": "SCALAR",
      "byteOffset": 33984
    },
    {
      "bufferView": 6,
      "componentType": 5123,
      "count": 708,
      "type": "SCALAR",
      "byteOffset": 35400
    },
    {
      "bufferView": 6,
      "componentType": 5123,
      "count": 708,
      "type": "SCALAR",
      "byteOffset": 36816
    },
    {
      "bufferView": 6,
      "componentType": 5123,
      "count": 708,
      "type": "SCALAR",
      "byteOffset": 38232
    },
    {
      "bufferView": 7,
      "componentType": 5123,
      "count": 756,
      "type": "SCALAR"
    },
    {
      "bufferView": 6,
      "componentType": 5123,
      "count": 357,
      "type": "SCALAR",
      "byteOffset": 39648
    },
    {
      "bufferView": 6,
      "componentType": 5123,
      "count": 495,
      "type": "SCALAR",
      "byteOffset": 40362
    }
  ],
  "bufferViews": [
    {
      "buffer": 0,
      "byteLength": 17960
    },
    {
      "buffer": 0,
      "byteOffset": 17964,
      "byteLength": 95196,
      "target": 34962,
      "byteStride": 12
    },
    {
      "buffer": 0,
      "byteOffset": 113160,
      "byteLength": 95196,
      "target": 34962,
      "byteStride": 12
    },
    {
      "buffer": 0,
      "byteOffset": 208356,
      "byteLength": 4188,
      "target": 34962,
      "byteStride": 12
    },
    {
      "buffer": 0,
      "byteOffset": 212544,
      "byteLength": 4188,
      "target": 34962,
      "byteStride": 12
    },
    {
      "buffer": 0,
      "byteOffset": 216736,
      "byteLength": 2792,
      "target": 34962,
      "byteStride": 8
    },
    {
      "buffer": 0,
      "byteOffset": 219528,
      "byteLength": 41352,
      "target": 34963
    },
    {
      "buffer": 0,
      "byteOffset": 260880,
      "byteLength": 1512,
      "target": 34963
    }
  ],
  "buffers": [
    {
      "uri": "data:application/octet-stream;base64,",
      "byteLength": 262392
    }
  ]
}